# xmcd
#
# Track frame offsets: 
#        150
#        19165
#        28862
#        46465
#        69980
#        85971
#        96960
#        112551
#        127839
#        143973
#        156830
#        162951
#        172176
#        181584
#        187529
#        198644
#        206886
#        219531
#        246658
#        268522
#        283158
#
# Disc length: 3977 seconds
#
# Revision: 1
# Processed by: cddbd v1.5.2PL0 Copyright (c) Steve Scherf et al.
# Submitted via: ExactAudioCopyFreeDBPlugin 1.0
#
DISCID=300f8715
DTITLE=Giorgos Dalaras - Kratisa ti zoi mou
DYEAR=2015
DGENRE=Greek
TTITLE0=Kratisa ti zoi mou
TTITLE1=Mesa Stis thalasines spilies
TTITLE2=Omorfi poli
TTITLE3=Apo to parathiro sou
TTITLE4=Arnisi (sto perigiali to krifo)
TTITLE5=Tou mikrou voria
TTITLE6=Mera magiou mou misepses
TTITLE7=Pios ti zoi mou
TTITLE8=Kapote Thartoun
TTITLE9=Ferte mou ti thalasa
TTITLE10=Se dromous makrinous
TTITLE11=Mia mera tha sto po
TTITLE12=Anavaptisi
TTITLE13=Kouventa me ena louloudi
TTITLE14=Karterema
TTITLE15=Mikros laos
TTITLE16=Edo tos fos
TTITLE17=Asma asmaton
TTITLE18=America insurrecta
TTITLE19=Romancero gitano
TTITLE20=Tin porta anigo to vradi
EXTD=
EXTT0=
EXTT1=
EXTT2=
EXTT3=
EXTT4=
EXTT5=
EXTT6=
EXTT7=
EXTT8=
EXTT9=
EXTT10=
EXTT11=
EXTT12=
EXTT13=
EXTT14=
EXTT15=
EXTT16=
EXTT17=
EXTT18=
EXTT19=
EXTT20=
PLAYORDER=
